<svg xmlns="http://www.w3.org/2000/svg" viewBox="0 0 98.51 98.4"><g id="Layer_2" data-name="Layer 2"><g id="Layer_1-2" data-name="Layer 1"><path d="M52.43,64.64c.54-.43,1-.8,1.42-1.14C64,56.09,74.13,48.66,84.32,41.32a4.61,4.61,0,0,1,2.94-.7c2.6.27,5.18.85,7.78,1.2,1.11.15,1.48.66,1.58,1.73q.87,8.91,1.86,17.79a1.62,1.62,0,0,1-1.13,2c-10.49,4.3-20.95,8.68-31.44,13a2.08,2.08,0,0,1-1.82-.12C60.18,72.45,56.36,68.58,52.43,64.64Z"/><path d="M33.58,45.79c-3.85-3.85-7.71-7.68-11.51-11.57a1.77,1.77,0,0,1,0-1.52Q28.57,16.8,35.23.94A2.09,2.09,0,0,1,36.92,0Q46,.84,55.09,1.9a2.13,2.13,0,0,1,1.42,1.34c.58,2.75,1,5.54,1.4,8.34a2.68,2.68,0,0,1-.42,1.74q-11.64,16-23.36,32A3.92,3.92,0,0,1,33.58,45.79Z"/><path d="M48.49,60.28,38.09,49.85c.15-.22.42-.71.74-1.15,6.68-9.16,13.39-18.3,20-27.48A2.56,2.56,0,0,1,61.71,20c4.37.67,8.75,1.26,13.13,1.8,1.16.14,1.65.56,1.79,1.74.55,4.51,1.24,9,1.79,13.52a2.21,2.21,0,0,1-.64,1.76C68,46,58.18,53.2,48.49,60.28Z"/><path d="M8,63.12,35.31,90.37c-4.77,5.74-10.8,8.91-18.43,7.81C8.72,97,3.15,92.3.85,84.34-1.63,75.75,1.47,68.81,8,63.12Z"/><path d="M32.38,79.19l15-11L58.56,79.42l-6.91,2.87c-3.37,1.4-6.72,2.83-10.11,4.16a2.11,2.11,0,0,1-1.82-.14C37.28,84.07,35,81.71,32.38,79.19Z"/><path d="M30,51,19.17,65.82C16.7,63.36,14.34,61,12,58.65a1.49,1.49,0,0,1-.22-1.33C14.2,51.48,16.63,45.66,19,40Z"/><path d="M28.48,74.89l-5-5.18L34.11,55.16l9,9Z"/></g></g></svg>