<svg xmlns="http://www.w3.org/2000/svg" viewBox="0 0 90.8 90.8"><g id="Layer_2" data-name="Layer 2"><g id="Layer_1-2" data-name="Layer 1"><path d="M45.47,0A45.4,45.4,0,1,1,0,45.24,45.4,45.4,0,0,1,45.47,0ZM42.73,22.66c0-1.95.1-3.91,0-5.85a3.32,3.32,0,0,0-1.07-2.15q-4.2-3.25-8.6-6.25a2.77,2.77,0,0,0-2.2-.24,38.62,38.62,0,0,0-17.7,13.65,2.71,2.71,0,0,0-.29,2.05c.94,3.17,1.95,6.32,3.08,9.42A3.18,3.18,0,0,0,17.58,35c3.67,1.31,7.38,2.5,11.11,3.61a3,3,0,0,0,2.22-.29q5.44-3.8,10.75-7.81a3.06,3.06,0,0,0,1-2C42.82,26.57,42.73,24.61,42.73,22.66Zm5.34-.12c0,2-.08,4,0,6A2.81,2.81,0,0,0,49,30.45q5.37,4.06,10.89,7.92a2.49,2.49,0,0,0,1.89.34c3.9-1.18,7.78-2.42,11.63-3.76a2.76,2.76,0,0,0,1.42-1.54q1.68-4.75,3.12-9.6a2.63,2.63,0,0,0-.34-2A38.57,38.57,0,0,0,59.93,8.15a2.53,2.53,0,0,0-2,.19c-3,2.07-6,4.24-8.89,6.45a2.6,2.6,0,0,0-.88,1.73C48,18.52,48.07,20.53,48.07,22.54ZM19.47,70.83c1.18,0,2.37-.09,3.54,0a2.73,2.73,0,0,0,2.76-1.42c2.16-3.1,4.47-6.11,6.61-9.22A3,3,0,0,0,32.75,58q-1.92-6.36-4.09-12.64a2.67,2.67,0,0,0-1.45-1.5c-3.85-1.34-7.73-2.59-11.62-3.78a2.29,2.29,0,0,0-1.74.25Q10,43,6.25,45.85a2.38,2.38,0,0,0-.81,1.72,41,41,0,0,0,5.79,18.76C13.14,69.61,15.23,72.05,19.47,70.83Zm51.72,0a28.28,28.28,0,0,1,3.19,0,3.18,3.18,0,0,0,3.21-1.62,39.78,39.78,0,0,0,7.75-21.52,2.53,2.53,0,0,0-.83-1.88Q80.88,43,77.06,40.41A2.73,2.73,0,0,0,75,40.13c-3.78,1.14-7.55,2.35-11.28,3.67a2.92,2.92,0,0,0-1.59,1.59c-1.43,4.13-2.79,8.28-4,12.47a3.47,3.47,0,0,0,.44,2.52c1.41,2.18,3.2,4.13,4.5,6.36C64.92,70,67.24,71.91,71.19,70.83ZM45.51,62.34c-2.24,0-4.49-.08-6.73,0a3,3,0,0,0-2,1c-2.4,3.14-4.73,6.35-7,9.6a3,3,0,0,0-.3,2.21c.59,2.22,1.43,4.38,2.07,6.59a2.41,2.41,0,0,0,1.85,1.84,40.36,40.36,0,0,0,23.91,0,2.45,2.45,0,0,0,1.89-1.81c.63-2.21,1.48-4.37,2.06-6.59a3.17,3.17,0,0,0-.36-2.36c-2.2-3.21-4.5-6.37-6.87-9.45a3.28,3.28,0,0,0-2.16-1C49.77,62.25,47.64,62.34,45.51,62.34Z"/></g></g></svg>