<svg xmlns="http://www.w3.org/2000/svg" viewBox="0 0 102.49 102.14"><g id="Layer_2" data-name="Layer 2"><g id="Layer_1-2" data-name="Layer 1"><path d="M52.91,22.59c-1.67-5.95,1.33-9.4,6.17-12.2,3.17-1.83,6-4.31,9-6.37a3,3,0,0,1,2.39-.29A49.43,49.43,0,0,1,94.39,23.62a2.94,2.94,0,0,1,.06,2.54q-4.5,8.1-9.3,16a4.34,4.34,0,0,1-2.38,1.51c-1.19.34-2.52.15-3.71.49C74.48,45.47,70.88,44,67.34,41c-4-3.38-8.45-6.31-12.77-9.34a3.28,3.28,0,0,1-1.69-3.23C53,26.49,52.91,24.54,52.91,22.59Z"/><path d="M49.69,23.79c1.67,4.94-1.37,8.31-6.15,11.2-4.27,2.57-8.1,5.85-12.21,8.68a4.25,4.25,0,0,1-3,.52,77.44,77.44,0,0,1-8-2.28,3.9,3.9,0,0,1-2.05-1.74q-4.23-8.46-8.22-17a3,3,0,0,1,.29-2.53A49.57,49.57,0,0,1,32.13,3.75,2.93,2.93,0,0,1,34.52,4q7.06,5,14,10.17a3.6,3.6,0,0,1,1.15,2.37C49.8,18.6,49.69,20.7,49.69,23.79Z"/><path d="M51.31,33.17C57.46,37.64,63.52,42,69.54,46.48a1.93,1.93,0,0,1,.52,1.67q-3.23,10.22-6.62,20.37a1.91,1.91,0,0,1-1.44,1q-10.72.11-21.44,0a1.94,1.94,0,0,1-1.41-1.08q-3.4-10.15-6.61-20.37a2.14,2.14,0,0,1,.73-1.78C39.18,42,45.15,37.65,51.31,33.17Z"/><path d="M19.25,79.38c-3.05,0-6.1.08-9.15-.06a3.23,3.23,0,0,1-2.28-1.19A45.35,45.35,0,0,1,1.39,62.45a2.94,2.94,0,0,1,.72-2.32q7.42-7.29,15-14.39c.57-.52,1.68-.47,2.54-.67.06,0,.13,0,.19.06,3,.9,6.73,1,8.74,2.93s2.28,5.63,3.27,8.57C33.25,60.77,34.51,65,36,69.07a3,3,0,0,1-.66,3.36c-1.74,2-3,4.76-5.16,5.88s-5,.48-7.56.61c-1.11.06-2.22.1-3.33.15Z"/><path d="M91.43,82.05c-7.29-.76-13.78-1.41-20.26-2.18-.66-.07-1.24-.83-1.85-1.28,0,0,0-.13-.08-.19a14.21,14.21,0,0,1-1-14.43c2-4.46,3.21-9.3,4.63-14,.44-1.47,1-2.26,2.65-2.23a12.22,12.22,0,0,0,3.72-.4c4-1.18,6.78.19,9.34,3.5,3.37,4.39,7.31,8.36,11.07,12.44a2.66,2.66,0,0,1,.64,3,49.79,49.79,0,0,1-7.15,14.48A6.21,6.21,0,0,1,91.43,82.05Z"/><path d="M51,72.82c3.47,0,7,.08,10.42,0,1.43,0,1.92.61,2.63,1.71C67,79,66.92,83.27,64.17,88c-2.3,3.93-3.85,8.3-5.66,12.5-.46,1.06-1,1.73-2.25,1.68-4.7-.22-9.41-.38-14.11-.57a2.43,2.43,0,0,1-2.35-1.92c-2.07-5.89-4.23-11.75-6.42-17.59a2.4,2.4,0,0,1,.43-2.81c1.85-2.06,3.2-5,5.47-6.12,2.12-1.06,5.16-.29,7.8-.31C48.4,72.8,49.72,72.82,51,72.82Z"/><path d="M7.45,25.18c2.7,5.6,5.31,11,7.85,16.33a1.76,1.76,0,0,1-.16,1.59C10.39,47.74,5.59,52.31.73,57-1.63,49.42,2,32.06,7.45,25.18Z"/><path d="M96.92,28.38c5,7.85,6.94,21.74,4.55,32-.4-.37-.76-.66-1.06-1-4-4.43-8-8.85-11.92-13.34A2.54,2.54,0,0,1,88,43.86C90.87,38.71,93.86,33.65,96.92,28.38Z"/><path d="M89.69,85.07A50.72,50.72,0,0,1,61.6,101.33c2.68-6,5.18-11.73,7.77-17.39A1.94,1.94,0,0,1,71,83.15C77,83.72,83.08,84.38,89.69,85.07Z"/><path d="M10.82,82.52c6.39-.22,12.26-.44,18.14-.59a1.59,1.59,0,0,1,1.24.76c2.14,5.68,4.2,11.38,6.44,17.53A50.81,50.81,0,0,1,10.82,82.52Z"/><path d="M37.26,2a51.46,51.46,0,0,1,28.09,0c-1.15.86-2,1.49-2.83,2.11-3.36,2.44-6.7,4.91-10.1,7.29-.45.32-1.4.56-1.75.31C46.28,8.56,42,5.38,37.26,2Z"/></g></g></svg>