<svg xmlns="http://www.w3.org/2000/svg" viewBox="0 0 305.19 209.49"><defs></defs><title>Asset 113x</title><g id="Layer_2" data-name="Layer 2"><g id="Layer_2-2" data-name="Layer 2"><path class="cls-1" d="M88.53,118.48l20.66-18V17.64L26.64,28.18h0l-5.39.68,0,.1L0,32.09,3.06,49.64h21L45.68,209.49l31.71-4.29-7.5-55.43,34,57.18,126.56.39v-38.4l-104.2,13ZM77.19,85.93,62.94,98.33,56.35,49.64H77.19l3,18.19Z"/><polygon class="cls-1" points="154.72 169.37 153.11 27.77 115.92 17.64 130.44 173.55 154.72 169.37"/><polygon class="cls-1" points="305.19 36.26 305.19 0 238.13 15.26 238.13 76.04 230.8 75.85 228.88 88.73 238.13 92.48 238.13 207.34 270.15 207.34 262.91 102.52 296.03 115.94 300.27 77.67 261.12 76.65 258.14 33.57 305.19 36.26"/><polygon class="cls-1" points="161.77 83.21 166.68 84.36 167.62 168.17 192.19 164.45 186.78 89.06 216.06 95.9 214.13 69.41 185.62 72.78 183.55 43.98 230.06 42.98 230.43 15.26 166.06 28.18 166.58 75.03 161.22 75.66 161.77 83.21"/></g></g></svg>