<svg xmlns="http://www.w3.org/2000/svg" viewBox="0 0 120.94 120.85"><g id="Layer_2" data-name="Layer 2"><g id="Layer_1-2" data-name="Layer 1"><path d="M18.17,17.34C30,6.15,43.81.34,59.92,0A5.33,5.33,0,0,1,65,3.26,69.25,69.25,0,0,1,69.75,15C74,31.25,74.57,47.86,74.47,64.51c0,3.1,0,6.19,0,9.62h-26C50.41,48.71,37.58,31.41,18.17,17.34Z"/><path d="M100.67,71.23,78.61,74c-.48-12.8-.6-25.23-1.52-37.59S74.48,11.83,68,.55A55.61,55.61,0,0,1,84.3,4.93a61.14,61.14,0,0,1,25.36,20.38c1.06,1.44,1,2.37,0,3.82C102.94,38.7,99,49.21,99.41,61.06,99.53,64.29,100.19,67.51,100.67,71.23Z"/><path d="M15.46,20.47C29,28.24,46.92,47.77,44.81,71.24c-.18,2.06-.67,2.78-2.91,2.59-10.71-.93-21.37-2.07-31.6-5.55a41.68,41.68,0,0,1-7.48-3.64A5.63,5.63,0,0,1,0,59.27,60.71,60.71,0,0,1,14.89,20.89,2.89,2.89,0,0,1,15.46,20.47Z"/><path d="M21.41,106.26c2.55-1.35,5-2.49,7.27-3.89C37.46,97,43.78,89.67,46.9,79.73c.21-.68,1-1.66,1.58-1.67C56.82,78,65.16,78,74,78c-.4,4.05-.56,8-1.22,11.78-1.13,6.52-2.52,13-3.94,19.47a25.81,25.81,0,0,1-1.9,5c-2.77,6.08-4.47,7-11,6.39C42.3,119.33,29.58,114,21.41,106.26Z"/><path d="M113.24,90C102.9,107.2,88,117.36,68,120.45c7.46-13.38,8.28-28,9.85-42.62,4.66-.51,9.36-1,14-1.56,2.92-.36,5.81-1,8.73-1.35.64-.09,1.79.19,2,.63A43.4,43.4,0,0,0,113.24,90Z"/><path d="M43.45,77.8a32.63,32.63,0,0,1-7.22,13.47,40.35,40.35,0,0,1-16.59,11.41,2.86,2.86,0,0,1-2.51-.34A59.42,59.42,0,0,1,.56,67.94C13.92,75.43,28.63,76.21,43.45,77.8Z"/><path d="M113,30.71a56.17,56.17,0,0,1,6.9,18.84c.56,3.21.69,6.49,1,9.74a5.43,5.43,0,0,1-2.36,5.09c-4.06,3.1-8.85,4.35-13.93,5.73C100.82,55.46,104.82,42.87,113,30.71Z"/><path d="M106.12,74.09l14.73-6c-1.76,6.12-3.47,12.11-5.39,18.79A36.52,36.52,0,0,1,106.12,74.09Z"/></g></g></svg>