<svg xmlns="http://www.w3.org/2000/svg" viewBox="0 0 136.62 136.85"><g id="Layer_2" data-name="Layer 2"><g id="Layer_1-2" data-name="Layer 1"><path d="M41.06,83.19a13.36,13.36,0,0,1,8.24-9.55C63.21,67.7,77.79,64.92,92.7,63.4c1.46-.15,2.93-.27,4.89-.45-.56,6-1,11.69-1.74,17.39-.07.56-1.68,1.17-2.65,1.32a200.65,200.65,0,0,1-43,2.17C47.26,83.67,44.3,83.42,41.06,83.19Z"/><path d="M35.66,26.37c3.19-.84,6-1.65,8.93-2.31a2.68,2.68,0,0,1,2,.4c12.74,10.81,24.2,22.68,31.57,38.45-2.51.54-4.74,1-7,1.49a82.55,82.55,0,0,0-8.12,2.08c-2.14.73-3.42.43-4.88-1.45A173.7,173.7,0,0,1,36.5,28.63C36.24,28,36.05,27.42,35.66,26.37Z"/><path d="M93.92,91.45c-.94,4.27-2.14,7.61-6.57,9.4-12.5,5-25.23,8.66-38.86,7.87a75.84,75.84,0,0,1-9.65-1.5c-.65-.13-1.69-.9-1.68-1.35.08-4.16.36-8.31.59-12.7C56.81,95.07,75.27,94,93.92,91.45Z"/><path d="M58.8,32.3C66.74,22,76,13.66,89.51,11.62c2-.3,6.7,4.24,6.36,6.18a2.79,2.79,0,0,1-.76,1.13L71.31,46.5Z"/><path d="M25.78,30.07A175,175,0,0,0,49.45,70.88c-3.51,3-6.62,3.11-10.51.39A59.71,59.71,0,0,1,15.36,38.66c-.52-1.72-.21-2.74,1.41-3.59C19.71,33.53,22.59,31.85,25.78,30.07Z"/><path d="M100,45.57c3.18,1.62,6.08,3,8.9,4.59a2.41,2.41,0,0,1,.92,1.79c0,13.56-.73,27.05-5.62,39.89-1.51,4-3.76,7.62-5.78,11.64-1.21-.79-1.86-1.27-2.56-1.66-2.17-1.22-2-2.59-1.4-5a117.92,117.92,0,0,0,4-19.62c.94-9.81,1-19.71,1.42-29.57C99.9,47.12,99.93,46.59,100,45.57Z"/><path d="M32.34,69.3,42,75.72c-3.31,6.08-6,12.54-6.44,19.57-.39,6.83-.08,13.7-.08,21.49-4.24-3.42-7.91-6.35-11.51-9.36a2.55,2.55,0,0,1-.57-1.78C23.29,96.19,24,86.81,27.61,78A87.21,87.21,0,0,1,32.34,69.3Z"/><path d="M92.94,132.05c-19,5.79-33.44-8.22-39.06-20.57,5.9-.93,11.82-1.9,17.76-2.75a2.06,2.06,0,0,1,1.66,1,54.85,54.85,0,0,0,19.34,21.64C92.76,131.43,92.78,131.67,92.94,132.05Z"/><path d="M25,61.88c-2.71,5.93-5.84,11.38-7.69,17.24s-2.35,11.94-3.45,18C11,94.24,8.54,91.26,8.15,86.62a58.2,58.2,0,0,1,9-36.41C20,54.43,22.7,58.48,25,61.88Z"/><path d="M83.55,105c2.54-1.18,4.7-2.25,6.93-3.16a2.31,2.31,0,0,1,2,.12c7.32,6.27,16.15,9.45,25.12,12.36a11.22,11.22,0,0,1,1.33.76c-4.18,3.4-8.05,6.67-12.08,9.74-.57.44-2,.16-2.83-.18C94.57,120.91,88.37,113.84,83.55,105Z"/><path d="M108.09,108.2c9.78-15.31,11.1-32.67,11.9-50.54,2.14,1.44,4.36,2.39,4.73,5.14,2.11,15.62.37,30.48-8.55,44C113.23,111.2,113,111.25,108.09,108.2Z"/><path d="M106.13,107.78,100,104.64c10.91-15.84,11.66-33.92,12.23-52,4.36,1.12,5.58,2.62,5.45,7-.37,12.07-1.42,24.06-5.6,35.49C110.47,99.32,108.23,103.31,106.13,107.78Z"/><path d="M82.7,36.42c1.44-1.7,2.6-3.26,4-4.62a2.52,2.52,0,0,1,2.12-.58,102.82,102.82,0,0,1,40.81,24.52l-3.85,3.46C113.19,48.19,98.31,41.94,82.7,36.42Z"/><path d="M38.63,90.91a11,11,0,0,1,.1-1.23c1-4.33,1-4.32,5.38-4a210,210,0,0,0,51-2.06c.79,4.39.13,5.41-3.93,6a236,236,0,0,1-49,1.76C41,91.26,39.9,91.07,38.63,90.91Z"/><path d="M27.87,29.27l5.56-2A174.55,174.55,0,0,0,57.8,68c-1.78.69-3.28,1.37-4.84,1.81a2.16,2.16,0,0,1-1.84-.57A163.83,163.83,0,0,1,27.87,29.27Z"/><path d="M6.44,39.84A64.39,64.39,0,0,1,18,22.47a4.11,4.11,0,0,1,1.69-.93A63.71,63.71,0,0,1,45,18.2a8.72,8.72,0,0,1,1.57.37l.44.83c-1.3.88-2.48,2.22-3.9,2.59C29.88,25.44,17.42,30.3,7.17,39.72,7.07,39.81,6.85,39.78,6.44,39.84Z"/><path d="M89.45,29c2.62-4.26,2.63-4.3,6.83-2.77,13.2,4.8,25.36,11.22,34.93,21.86,1.93,2.13,2,3.76-.33,5.71A107.92,107.92,0,0,0,89.45,29Z"/><path d="M51.39,25.36,47.3,22.08c1.94-2.77,3.54-5.76,5.79-8.14,3.38-3.57,7.23-6.69,10.83-10,5.79-5.38,11.54-3.15,17.92.2C69,7.63,59.12,14.77,51.39,25.36Z"/><path d="M103.69,127c-2.48,1.29-4.33,2.37-6.29,3.19a3.23,3.23,0,0,1-2.53-.18,51.2,51.2,0,0,1-19.94-22.16l6.47-2.15C86.47,115.14,93.2,122.65,103.69,127Z"/><path d="M56.71,30.21,53.2,26.65c7.72-10.57,17.67-18,30.74-20.49,1.54-.3,3.48,1.48,5.17,2.75-6.68,1.58-12.91,3.82-18,8.05S61.51,25.74,56.71,30.21Z"/><path d="M132.67,46C122.09,35,109,28.25,94.78,23.32c1.86-3.85,2.7-4.23,6.34-3A80.64,80.64,0,0,1,126,34.43C129.84,37.51,131.3,41.64,132.67,46Z"/><path d="M21,104.34c-3.43-2.1-4.64-4.66-4.38-8.49.64-9.43,2.41-18.47,7.19-26.74.93-1.6,2.05-3.08,3.31-5L31,67.83C22.51,78.52,21.49,91.29,21,104.34Z"/><path d="M9.56,59.4,1.14,58.27c.14-8.86,4.22-15.34,11.63-20.12,1.07,2.92,2.15,5.75,3.11,8.63a2.51,2.51,0,0,1-.28,1.76C13.65,52.13,11.64,55.67,9.56,59.4Z"/><path d="M111.92,22.07c-4.37-1.61-8.64-3.16-12.89-4.78a2.66,2.66,0,0,1-1.18-1.1A38.78,38.78,0,0,0,82.92,1.92c1.19.15,1.62.19,2,.27s.91.19,1.36.31a80.82,80.82,0,0,1,21.22,9.85C111.46,14.81,112,18.09,111.92,22.07Z"/><path d="M58.39,122.81l6.86,6.46c-6.55,6-16.44,6.44-25.18,1,3.2-1.16,6.35-2.17,9.41-3.42S55.39,124.19,58.39,122.81Z"/><path d="M136.43,78.36c-1.52,5.22-2.31,10.09-4.43,14.29-1,2-4.58,2.72-7,4l-.53-.78c.82-3.66,1.74-7.3,2.44-11,1-5.17.92-5.18,6.1-6Z"/><path d="M17.76,114.15A59.42,59.42,0,0,1,7.08,98.27c-.44-1,.36-2.54.65-4.27l15.63,16.41Z"/><path d="M127.74,69.41c-.32-2.69-.66-5-.84-7.26a2.43,2.43,0,0,1,.74-1.62c2.35-2.46,4.76-4.86,7.59-7.72.5,4.64,1,9.07,1.39,13.52,0,.49-.83,1.37-1.42,1.53C132.88,68.47,130.5,68.86,127.74,69.41Z"/><path d="M27.17,123.07l6.62-4.73,13.84,7.06c-3.68,1.12-7,2.17-10.32,3.08a3,3,0,0,1-2.07-.38C32.62,126.55,30.06,124.89,27.17,123.07Z"/><path d="M56.62,6.62C55.4,7.9,54.22,9.2,53,10.42a2.21,2.21,0,0,1-1.42.66c-6.34-.26-12.68-.57-18.62-.86C39.78,5.43,47.42,2.16,56.62,6.62Z"/><path d="M130.65,97.77c-3.16,4.66-6.15,9.46-9.62,13.88-.68.86-3.2.27-5.26.37,2.61-4.71,4.75-8.79,7.15-12.71.43-.71,1.93-.82,3-1.12,1.32-.39,2.66-.7,4-1Z"/><path d="M22.64,17.2c2.16-1.09,4.2-2.6,6.49-3.18a48.39,48.39,0,0,1,21.1-.81c-.76,2.43-2.09,2.9-4.57,3-6.95.16-13.89,1-20.83,1.53-.61.05-1.21.21-1.81.32Z"/><path d="M6.52,70.72C-.11,69.87-1,68.32.83,60.56l8.12,1Z"/><path d="M19.66,115.81a.64.64,0,0,1,.14-.22c5.92-4.35,6-4.35,11.69,1.16C27,122.13,24,121.88,19.66,115.81Z"/><path d="M136.4,70.05c.4,6.69.88,6.46-8.51,7V71.75c.61-.16,1.14-.34,1.67-.44C131.83,70.88,134.1,70.47,136.4,70.05Z"/><path d="M.93,80.42l4.87,1.1c-.8,4.23,2.05,8.41-.9,12.69Z"/><path d="M57.81,135.75c3.31-1.6,6.1-3.31,9.14-4.26,1.33-.42,3.15.73,4.68,1.45C67.35,135.16,63.22,137.37,57.81,135.75Z"/><path d="M.42,71.57l5.72,1.71-.46,5.51C.6,78.68.1,78,.42,71.57Z"/><path d="M51,2.16,64.65,0C60.89,5.2,56.38,4.67,51,2.16Z"/><path d="M114.18,18c2.75,2,4.87,4.1,4.14,7.75C114,24.89,113.89,21.74,114.18,18Z"/><path d="M70.47,136.85c3-3,5.93-2.58,9-.93Z"/></g></g></svg>