<svg xmlns="http://www.w3.org/2000/svg" viewBox="0 0 91.67 91.44"><g id="Layer_2" data-name="Layer 2"><g id="Layer_1-2" data-name="Layer 1"><path d="M72.74,82.92c-.62-3.06-1-5.65-1.66-8.17A50.57,50.57,0,0,0,49.92,45a2.52,2.52,0,0,1-1.33-2.59,46.16,46.16,0,0,1,6.17-20.06A42.84,42.84,0,0,1,69.41,32.78C80,44.52,83.92,58.21,80.88,73.78a6.11,6.11,0,0,1-1.52,2.91C77.34,78.77,75.14,80.68,72.74,82.92Z"/><path d="M21.37,49.1a45.09,45.09,0,0,1,5.57-26.78A44.78,44.78,0,0,1,52.08,1.23,8.26,8.26,0,0,1,56.38,1c2.7.61,5.31,1.59,8.31,2.53-.75.63-1.12,1-1.52,1.28C51.05,14.48,44.36,27,43.21,42.49a2.5,2.5,0,0,1-1,1.78,44.21,44.21,0,0,1-20.1,5A4.83,4.83,0,0,1,21.37,49.1Z"/><path d="M61.28,64.78A43,43,0,0,1,44,72.4Q21.65,76.72,4.15,62a6.65,6.65,0,0,1-2.48-4c-.49-2.54-1-5.06-1.6-7.67,3.77,1.14,7.12,2.42,10.59,3.16a50.37,50.37,0,0,0,33.25-4.11,3,3,0,0,1,3.51.3A46.87,46.87,0,0,1,61.28,64.78Z"/><path d="M8.26,71.75c19,10,37.36,9.35,55.8-2.15a113.81,113.81,0,0,1,2.76,11.34c.88,6.22,1.66,4.87-4.19,7.22A45.64,45.64,0,0,1,9.28,73.26C9,72.86,8.71,72.42,8.26,71.75Z"/><path d="M41.42,0C23.52,11.53,15.09,27.68,15.81,48.76a4.65,4.65,0,0,1-1.29,0c-4.37-1.33-8.73-2.7-13.1-4C.29,44.35,0,43.68,0,42.45,1.09,20.72,19.26,1.92,41.42,0Z"/><path d="M87.45,64.59c-1-21.46-10.76-36.93-29.57-46.87A39.22,39.22,0,0,1,66.1,9.37c4.75-3.47,3.07-3.61,7.79,0A45.62,45.62,0,0,1,88.15,63.08C88,63.46,87.81,63.82,87.45,64.59Z"/></g></g></svg>